{
  "asset": {
    "version": "2.0",
    "generator": "THREE.GLTFExporter r173"
  },
  "scenes": [
    {
      "name": "Scene",
      "nodes": [
        0
      ]
    }
  ],
  "scene": 0,
  "nodes": [
    {
      "matrix": [
        -0.05249639722804432,
        0,
        0.0006170077700574599,
        0,
        0,
        0.05250000208616257,
        0,
        0,
        -0.0006170077700574599,
        0,
        -0.05249639722804432,
        0,
        0,
        0,
        0,
        1
      ],
      "name": "CAR_03_1_2001",
      "extras": {
        "name": "CAR_03_1_2.001"
      },
      "mesh": 0
    }
  ],
  "bufferViews": [
    {
      "buffer": 0,
      "byteOffset": 0,
      "byteLength": 26928,
      "target": 34962,
      "byteStride": 12
    },
    {
      "buffer": 0,
      "byteOffset": 26928,
      "byteLength": 26928,
      "target": 34962,
      "byteStride": 12
    },
    {
      "buffer": 0,
      "byteOffset": 53856,
      "byteLength": 17952,
      "target": 34962,
      "byteStride": 8
    },
    {
      "buffer": 0,
      "byteOffset": 71808,
      "byteLength": 4488,
      "target": 34963
    }
  ],
  "buffers": [
    {
      "byteLength": 76296,
      "uri": "data:application/octet-stream;base64,"
    }
  ],
  "accessors": [
    {
      "bufferView": 0,
      "componentType": 5126,
      "count": 2244,
      "max": [
        21.934070587158203,
        28.316524505615234,
        46.78362274169922
      ],
      "min": [
        -21.92613410949707,
        -11.837833404541016,
        -53.20646286010742
      ],
      "type": "VEC3"
    },
    {
      "bufferView": 1,
      "componentType": 5126,
      "count": 2244,
      "max": [
        1,
        1,
        0.9878042936325073
      ],
      "min": [
        -1,
        -1,
        -1
      ],
      "type": "VEC3"
    },
    {
      "bufferView": 2,
      "componentType": 5126,
      "count": 2244,
      "max": [
        0.9623034000396729,
        0.8403268456459045
      ],
      "min": [
        0.009525123052299023,
        0.021897315979003906
      ],
      "type": "VEC2"
    },
    {
      "bufferView": 3,
      "componentType": 5123,
      "count": 2244,
      "max": [
        2243
      ],
      "min": [
        0
      ],
      "type": "SCALAR"
    }
  ],
  "materials": [
    {
      "pbrMetallicRoughness": {
        "baseColorFactor": [
          0.46053269505500793,
          0.44652557373046875,
          0.4211791455745697,
          1
        ],
        "metallicFactor": 0,
        "roughnessFactor": 1,
        "baseColorTexture": {
          "index": 0,
          "texCoord": 0,
          "extensions": {
            "KHR_texture_transform": {
              "offset": [
                0,
                -1
              ]
            }
          }
        }
      },
      "name": "World ap"
    }
  ],
  "textures": [
    {
      "sampler": 0,
      "source": 0,
      "name": "Image_0"
    }
  ],
  "samplers": [
    {
      "magFilter": 9729,
      "minFilter": 9987,
      "wrapS": 10497,
      "wrapT": 10497
    }
  ],
  "images": [
    {
      "mimeType": "image/png",
      "uri": "data:image/png;base64,"
    }
  ],
  "meshes": [
    {
      "primitives": [
        {
          "mode": 4,
          "attributes": {
            "POSITION": 0,
            "NORMAL": 1,
            "TEXCOORD_0": 2
          },
          "indices": 3,
          "material": 0
        }
      ]
    }
  ],
  "extensionsUsed": [
    "KHR_texture_transform"
  ]
}